<!DOCTYPE svg PUBLIC "-//W3C//DTD SVG 1.1//EN" "http://www.w3.org/Graphics/SVG/1.1/DTD/svg11.dtd">

<svg width="800px" height="800px" viewBox="-2.4 -2.4 28.80 28.80" fill="none" xmlns="http://www.w3.org/2000/svg" transform="rotate(20)matrix(1, 0, 0, 1, 0, 0)" stroke="#000">

<g id="SVGRepo_bgCarrier" stroke-width="0">

<rect x="-2.4" y="-2.4" width="28.80" height="28.80" rx="14.4" fill="#85B35F" strokewidth="0"/>

</g>

<g id="SVGRepo_tracerCarrier" stroke-linecap="round" stroke-linejoin="round"/>

<g id="SVGRepo_iconCarrier"> <path d="M10 6H15C16.6569 6 18 7.34315 18 9C18 10.6569 16.6569 12 15 12M10 6V12M10 6H7M10 6V3M15 12H10M15 12C16.6569 12 18 13.3431 18 15C18 16.6569 16.6569 18 15 18H10M10 12V18M10 18H7M10 18V21M13 6V3M13 21V18" stroke="#fff" stroke-width="1.9200000000000004" stroke-linecap="round" stroke-linejoin="round"/> </g>

</svg>