<!DOCTYPE svg PUBLIC "-//W3C//DTD SVG 1.1//EN" "http://www.w3.org/Graphics/SVG/1.1/DTD/svg11.dtd">

<svg fill="#808080" width="800px" height="800px" viewBox="-2.4 -2.4 28.80 28.80" role="img" xmlns="http://www.w3.org/2000/svg" stroke="#808080" stroke-width="0.00024000000000000003">

<g id="SVGRepo_bgCarrier" stroke-width="0" transform="translate(2.2799999999999994,2.2799999999999994), scale(0.81)">

<rect x="-2.4" y="-2.4" width="28.80" height="28.80" rx="14.4" fill="#fff" strokewidth="0"/>

</g>

<g id="SVGRepo_tracerCarrier" stroke-linecap="round" stroke-linejoin="round"/>

<g id="SVGRepo_iconCarrier">

<path d="M12 0a12 12 0 1 0 12 12A12 12 0 0 0 12 0zm-.262 3.678h2.584a.343.343 0 0 1 .33.435l-2.03 6.918 1.905-.582-.408 1.385-1.924.56-1.248 4.214h6.676a.343.343 0 0 1 .328.437l-.582 2a.459.459 0 0 1-.44.33H6.733l1.723-5.822-1.906.58.42-1.361 1.91-.58 2.422-8.18a.456.456 0 0 1 .437-.334z"/>

</g>

</svg>